M48
; DRILL file {KiCad 5.1.10-88a1d61d58~90~ubuntu20.04.1} date Sun Sep 26 11:39:58 2021
; FORMAT={-:-/ absolute / inch / decimal}
; #@! TF.CreationDate,2021-09-26T11:39:58+02:00
; #@! TF.GenerationSoftware,Kicad,Pcbnew,5.1.10-88a1d61d58~90~ubuntu20.04.1
FMAT,2
INCH
T1C0.0157
T2C0.0354
T3C0.0374
T4C0.0394
T5C0.0591
%
G90
G05
T1
X4.48Y-4.375
X4.6Y-4.0
X4.64Y-4.12
X4.76Y-4.73
X4.975Y-4.615
X4.985Y-4.19
X5.045Y-4.44
X5.09Y-4.405
X5.325Y-2.675
X5.6Y-4.56
X5.6831Y-4.6631
X5.685Y-4.735
X5.77Y-3.09
X5.82Y-2.925
X5.84Y-4.615
X5.9525Y-3.0225
X5.9786Y-4.6964
X5.9822Y-4.3772
X6.17Y-4.435
X6.1725Y-4.3875
X6.243Y-4.662
X6.29Y-4.44
X6.3225Y-2.3375
X6.44Y-4.71
X6.5224Y-4.4796
X6.5233Y-4.5307
X6.5236Y-4.4284
X6.5675Y-4.6475
X6.6978Y-4.3772
X6.6998Y-4.2748
X6.805Y-4.3255
T2
X6.99Y-4.277
X6.99Y-4.3558
X6.99Y-4.4345
X7.0205Y-4.7185
X7.0205Y-4.8185
X7.0205Y-4.9185
T3
X5.5479Y-2.475
X5.5479Y-2.818
X5.6463Y-2.475
X5.6463Y-2.818
X5.7447Y-2.475
X5.7447Y-2.818
X5.8431Y-2.475
X5.8431Y-2.818
X5.9416Y-2.475
X5.9416Y-2.818
X6.04Y-2.475
X6.04Y-2.818
T4
X5.1Y-2.18
X5.1Y-2.28
X5.1Y-2.38
X5.1Y-2.48
X5.1Y-2.58
X5.1Y-2.68
X5.1Y-3.92
X5.1Y-4.92
X5.2Y-3.92
X5.2Y-4.92
X5.3Y-3.92
X5.3Y-4.92
X5.4Y-3.92
X5.4Y-4.92
X5.5Y-3.92
X5.5Y-4.92
X5.54Y-2.225
X5.6Y-3.92
X5.6Y-4.92
X5.64Y-2.225
X5.7Y-3.92
X5.7Y-4.92
X5.74Y-2.225
X5.8Y-3.92
X5.8Y-4.92
X5.84Y-2.225
X5.9Y-3.92
X5.9Y-4.92
X5.94Y-2.225
X6.0Y-3.92
X6.0Y-4.92
X6.04Y-2.225
X6.1Y-3.92
X6.1Y-4.92
X6.2Y-3.92
X6.2Y-4.92
X6.3Y-3.92
X6.3Y-4.92
X6.4Y-3.92
X6.4Y-4.92
X6.48Y-2.18
X6.48Y-2.28
X6.48Y-2.38
X6.48Y-2.48
X6.48Y-2.58
X6.48Y-2.68
X6.5Y-3.92
X6.5Y-4.92
X6.9216Y-4.0105
X7.02Y-4.0105
T5
X6.99Y-4.1943
X6.99Y-4.5172
T0
M30
