G04 #@! TF.GenerationSoftware,KiCad,Pcbnew,5.1.10-88a1d61d58~90~ubuntu20.04.1*
G04 #@! TF.CreationDate,2021-09-26T11:40:27+02:00*
G04 #@! TF.ProjectId,micromouse_v2,6d696372-6f6d-46f7-9573-655f76322e6b,rev?*
G04 #@! TF.SameCoordinates,Original*
G04 #@! TF.FileFunction,Profile,NP*
%FSLAX46Y46*%
G04 Gerber Fmt 4.6, Leading zero omitted, Abs format (unit mm)*
G04 Created by KiCad (PCBNEW 5.1.10-88a1d61d58~90~ubuntu20.04.1) date 2021-09-26 11:40:27*
%MOMM*%
%LPD*%
G01*
G04 APERTURE LIST*
G04 #@! TA.AperFunction,Profile*
%ADD10C,0.200000*%
G04 #@! TD*
G04 #@! TA.AperFunction,Profile*
%ADD11C,0.050000*%
G04 #@! TD*
G04 APERTURE END LIST*
D10*
X149352063Y-130034000D02*
G75*
G03*
X149352063Y-130034000I-1556063J0D01*
G01*
X182714900Y-127596900D02*
X154178000Y-127508000D01*
D11*
X154178000Y-127508000D02*
G75*
G02*
X140970000Y-127508000I-6604000J0D01*
G01*
X140716000Y-52070000D02*
X114300000Y-52070000D01*
X140716000Y-52070000D02*
G75*
G02*
X153924000Y-52070000I6604000J0D01*
G01*
D10*
X152781000Y-78740000D02*
X153797000Y-77676000D01*
X140589000Y-77676000D02*
X141732000Y-78867000D01*
X152781000Y-78740000D02*
X152781000Y-90170000D01*
D11*
X180340000Y-52070000D02*
X153924000Y-52070000D01*
X182720000Y-77676000D02*
X182880000Y-54610000D01*
X111760000Y-54610000D02*
X111720000Y-77676000D01*
X180340000Y-52070000D02*
X182880000Y-54610000D01*
X111760000Y-54610000D02*
X114300000Y-52070000D01*
D10*
X111720000Y-77676000D02*
X140589000Y-77676000D01*
X141732000Y-90170000D02*
X111720000Y-90176000D01*
X111720000Y-90176000D02*
X111714900Y-127596900D01*
X182720000Y-90176000D02*
X182714900Y-127596900D01*
X123219999Y-93176000D02*
G75*
G03*
X123219999Y-93176000I-1499999J0D01*
G01*
X123219999Y-74676000D02*
G75*
G03*
X123219999Y-74676000I-1499999J0D01*
G01*
X141732000Y-78867000D02*
X141732000Y-90170000D01*
X182720000Y-77676000D02*
X153797000Y-77676000D01*
X152781000Y-90170000D02*
X182720000Y-90176000D01*
X140970000Y-127508000D02*
X111714900Y-127596900D01*
X174180000Y-123176000D02*
G75*
G03*
X174180000Y-123176000I-2000000J0D01*
G01*
X127508000Y-123176000D02*
G75*
G03*
X127508000Y-123176000I-2000000J0D01*
G01*
X174219999Y-93176000D02*
G75*
G03*
X174219999Y-93176000I-1499999J0D01*
G01*
X174219999Y-74676000D02*
G75*
G03*
X174219999Y-74676000I-1499999J0D01*
G01*
M02*
